<svg width="25" height="24" viewBox="0 0 25 24" fill="none" xmlns="http://www.w3.org/2000/svg">
<path fill-rule="evenodd" clip-rule="evenodd" d="M6.24979 23.3276V20.8326C6.24979 17.3809 9.04801 14.5826 12.4998 14.5826C15.9516 14.5826 18.7498 17.3809 18.7498 20.8326V23.3278C22.4862 21.1666 25 17.1269 25 12.5C25 5.59644 19.4036 0 12.5 0C5.59644 0 0 5.59644 0 12.5C0 17.1267 2.51365 21.1663 6.24979 23.3276ZM15.9718 8.6798C15.9718 10.7892 14.2617 12.4992 12.1523 12.4992C10.0429 12.4992 8.33288 10.7892 8.33288 8.6798C8.33288 6.57037 10.0429 4.86035 12.1523 4.86035C14.2617 4.86035 15.9718 6.57037 15.9718 8.6798Z" fill="white"/>
</svg>
