<svg width="16" height="12" viewBox="0 0 16 12" fill="none" xmlns="http://www.w3.org/2000/svg">
<path d="M15.744 1.17948L15.2199 0.655382C15.0552 0.490569 14.8357 0.399902 14.6013 0.399902C14.3668 0.399902 14.1471 0.490569 13.9825 0.655382L6.61815 8.01955L2.01704 3.41831C1.85236 3.25376 1.63265 3.16296 1.39825 3.16296C1.16397 3.16296 0.944391 3.25376 0.779578 3.41831L0.25535 3.94228C0.0905367 4.10735 0 4.32719 0 4.56134C0 4.79561 0.0905367 5.01532 0.25535 5.18013L5.45028 10.3748C5.45718 10.3846 5.46446 10.3937 5.47292 10.402L5.99715 10.9175C6.16183 11.0817 6.38154 11.1637 6.61776 11.1637H6.6205C6.85503 11.1637 7.07474 11.0817 7.23916 10.9175L7.76352 10.3974C7.77198 10.3891 7.77913 10.3822 7.78342 10.3752L15.7439 2.41551C16.0854 2.07483 16.0854 1.52055 15.744 1.17948Z" fill="black" fill-opacity="0.5"/>
</svg>
