<svg width="26" height="26" viewBox="0 0 26 26" fill="none" xmlns="http://www.w3.org/2000/svg">
<path fill-rule="evenodd" clip-rule="evenodd" d="M25.6154 12.8077C25.6154 19.8812 19.8812 25.6154 12.8077 25.6154C5.73419 25.6154 0 19.8812 0 12.8077C0 5.73419 5.73419 0 12.8077 0C19.8812 0 25.6154 5.73419 25.6154 12.8077ZM14.003 13.4909V20.407H11.2707V13.4909H8.96535V10.7586H11.2707V8.79471C11.2707 6.48933 12.7223 5.20856 14.7715 5.20856C15.3885 5.20856 15.9687 5.24541 16.3667 5.27069C16.5746 5.28389 16.7328 5.29394 16.8207 5.29394V7.7701H15.3692C14.2592 7.7701 14.003 8.2824 14.003 9.05087V10.7586H16.65L16.3084 13.4909H14.003Z" fill="white"/>
</svg>
