<svg width="26" height="26" viewBox="0 0 26 26" fill="none" xmlns="http://www.w3.org/2000/svg">
<g clip-path="url(#clip0)">
<path d="M15.2591 13.1924C15.2591 14.5463 14.1616 15.6439 12.8077 15.6439C11.4537 15.6439 10.3562 14.5463 10.3562 13.1924C10.3562 11.8385 11.4537 10.7409 12.8077 10.7409C14.1616 10.7409 15.2591 11.8385 15.2591 13.1924Z" fill="white"/>
<path d="M18.5408 8.85501C18.423 8.53568 18.235 8.24664 17.9907 8.00939C17.7535 7.7651 17.4646 7.5771 17.1451 7.45925C16.8859 7.35861 16.4966 7.23881 15.7796 7.20617C15.004 7.1708 14.7714 7.16318 12.8077 7.16318C10.8438 7.16318 10.6113 7.1706 9.83582 7.20598C9.11879 7.23881 8.7293 7.35861 8.47035 7.45925C8.15082 7.5771 7.86178 7.7651 7.62473 8.00939C7.38044 8.24664 7.19244 8.53548 7.0744 8.85501C6.97375 9.11415 6.85395 9.50364 6.82131 10.2207C6.78594 10.9961 6.77832 11.2287 6.77832 13.1926C6.77832 15.1563 6.78594 15.3888 6.82131 16.1645C6.85395 16.8815 6.97375 17.2708 7.0744 17.5299C7.19244 17.8495 7.38024 18.1383 7.62453 18.3756C7.86178 18.6199 8.15063 18.8079 8.47016 18.9257C8.7293 19.0265 9.11879 19.1463 9.83582 19.179C10.6113 19.2143 10.8436 19.2218 12.8075 19.2218C14.7716 19.2218 15.0042 19.2143 15.7794 19.179C16.4965 19.1463 16.8859 19.0265 17.1451 18.9257C17.7865 18.6783 18.2934 18.1713 18.5408 17.5299C18.6415 17.2708 18.7613 16.8815 18.7941 16.1645C18.8295 15.3888 18.8369 15.1563 18.8369 13.1926C18.8369 11.2287 18.8295 10.9961 18.7941 10.2207C18.7615 9.50364 18.6417 9.11415 18.5408 8.85501ZM12.8077 16.9689C10.7219 16.9689 9.03104 15.2782 9.03104 13.1924C9.03104 11.1066 10.7219 9.4159 12.8077 9.4159C14.8933 9.4159 16.5842 11.1066 16.5842 13.1924C16.5842 15.2782 14.8933 16.9689 12.8077 16.9689ZM16.7335 10.1491C16.2461 10.1491 15.8509 9.75399 15.8509 9.26659C15.8509 8.77919 16.2461 8.38403 16.7335 8.38403C17.2209 8.38403 17.6161 8.77919 17.6161 9.26659C17.6159 9.75399 17.2209 10.1491 16.7335 10.1491Z" fill="white"/>
<path d="M12.8077 0.384644C5.73528 0.384644 0 6.11992 0 13.1923C0 20.2647 5.73528 26 12.8077 26C19.8801 26 25.6154 20.2647 25.6154 13.1923C25.6154 6.11992 19.8801 0.384644 12.8077 0.384644ZM20.1177 16.2244C20.0822 17.0073 19.9577 17.5418 19.7759 18.0097C19.3939 18.9976 18.6129 19.7785 17.625 20.1606C17.1574 20.3423 16.6227 20.4666 15.84 20.5024C15.0557 20.5381 14.8052 20.5467 12.8079 20.5467C10.8104 20.5467 10.56 20.5381 9.77559 20.5024C8.99289 20.4666 8.4582 20.3423 7.99053 20.1606C7.49961 19.9759 7.05521 19.6865 6.6878 19.3122C6.31375 18.945 6.02432 18.5004 5.83963 18.0097C5.65789 17.542 5.5334 17.0073 5.49783 16.2246C5.46167 15.4402 5.45327 15.1896 5.45327 13.1923C5.45327 11.195 5.46167 10.9445 5.49763 10.1602C5.5332 9.37734 5.65749 8.84284 5.83924 8.37498C6.02393 7.88426 6.31355 7.43966 6.6878 7.07244C7.05501 6.6982 7.49961 6.40876 7.99034 6.22408C8.4582 6.04233 8.9927 5.91804 9.77559 5.88228C10.5598 5.84651 10.8104 5.83791 12.8077 5.83791C14.805 5.83791 15.0555 5.84651 15.8398 5.88247C16.6227 5.91804 17.1572 6.04233 17.625 6.22389C18.1157 6.40857 18.5604 6.6982 18.9278 7.07244C19.3018 7.43985 19.5914 7.88426 19.7759 8.37498C19.9579 8.84284 20.0822 9.37734 20.1179 10.1602C20.1537 10.9445 20.1621 11.195 20.1621 13.1923C20.1621 15.1896 20.1537 15.4402 20.1177 16.2244Z" fill="white"/>
</g>
<defs>
<clipPath id="clip0">
<rect y="0.384644" width="25.6154" height="25.6154" fill="white"/>
</clipPath>
</defs>
</svg>
