<svg width="25" height="25" viewBox="0 0 25 25" fill="none" xmlns="http://www.w3.org/2000/svg">
<path d="M9.29506 0L8.68459 3.1543C7.6666 3.54225 6.7253 4.08426 5.89874 4.76807L2.89244 3.72314L0 8.77686L2.40552 10.8838C2.32023 11.4112 2.26502 11.9483 2.26502 12.5C2.26502 13.0517 2.32023 13.5888 2.40552 14.1162L0 16.2231L2.89244 21.2769L5.89874 20.2319C6.7253 20.9157 7.6666 21.4578 8.68459 21.8457L9.29506 25H15.0799L15.6904 21.8457C16.7084 21.4578 17.6497 20.9157 18.4763 20.2319L21.4826 21.2769L24.375 16.2231L21.9695 14.1162C22.0548 13.5888 22.11 13.0517 22.11 12.5C22.11 11.9483 22.0548 11.4112 21.9695 10.8838L24.375 8.77686L21.4826 3.72314L18.4763 4.76807C17.6497 4.08426 16.7084 3.54225 15.6904 3.1543L15.0799 0H9.29506ZM12.1875 7.5C14.9273 7.5 17.1487 9.73875 17.1487 12.5C17.1487 15.2613 14.9273 17.5 12.1875 17.5C9.44765 17.5 7.22626 15.2613 7.22626 12.5C7.22626 9.73875 9.44765 7.5 12.1875 7.5Z" fill="white"/>
</svg>
