<svg width="20" height="20" viewBox="0 0 20 20" fill="none" xmlns="http://www.w3.org/2000/svg">
<path d="M8.33472 1.20728H11.6773V1.76971H12.8844V1.12854C12.8846 0.506287 12.3786 0 11.7567 0H8.25537C7.63342 0 7.12744 0.506287 7.12744 1.12854V1.76971H8.33472V1.20728Z" fill="#FFADB3"/>
<path d="M15.6725 6.55273H4.34005C4.02953 6.55273 3.78509 6.81763 3.81011 7.12723L4.75753 18.8423C4.81033 19.4963 5.35583 20 6.01119 20H14.0012C14.6565 20 15.202 19.4963 15.2548 18.8422L16.2022 7.12723C16.2274 6.81763 15.983 6.55273 15.6725 6.55273Z" fill="#FFADB3"/>
<path d="M17.7597 4.69L17.3633 3.50165C17.2587 3.18839 16.9655 2.97705 16.6351 2.97705H3.3769C3.0467 2.97705 2.75328 3.18839 2.64891 3.50165L2.25248 4.69C2.17604 4.91919 2.27552 5.15295 2.46122 5.26953C2.53691 5.31699 2.62647 5.34552 2.72489 5.34552H17.2873C17.3857 5.34552 17.4754 5.31699 17.5509 5.26938C17.7366 5.1528 17.8361 4.91904 17.7597 4.69Z" fill="#FFADB3"/>
</svg>
