<svg width="26" height="27" viewBox="0 0 26 27" fill="none" xmlns="http://www.w3.org/2000/svg">
<path d="M12.8082 0.826599C5.73443 0.826599 0 6.56207 0 13.6348C0 20.7086 5.73443 26.442 12.8082 26.442C19.882 26.442 25.6154 20.7086 25.6154 13.6348C25.6154 6.56207 19.8814 0.826599 12.8082 0.826599ZM19.2599 11.0524C19.2667 11.1907 19.2693 11.3296 19.2693 11.47C19.2693 15.7356 16.0226 20.6534 10.0858 20.6534C8.26331 20.6534 6.56612 20.1193 5.13784 19.2038C5.39063 19.2335 5.64705 19.2486 5.90764 19.2486C7.42017 19.2486 8.81204 18.7326 9.91628 17.8671C8.50413 17.8406 7.31251 16.9069 6.90161 15.6248C7.09821 15.6633 7.30054 15.6826 7.5086 15.6826C7.80299 15.6826 8.08802 15.6441 8.35901 15.5697C6.88184 15.2732 5.76928 13.9677 5.76928 12.4052C5.76928 12.3912 5.76928 12.3776 5.7698 12.3636C6.20463 12.6055 6.7024 12.7506 7.23189 12.7677C6.36535 12.1878 5.79581 11.2011 5.79581 10.0808C5.79581 9.48936 5.95497 8.93439 6.23272 8.45795C7.82484 10.4105 10.2034 11.6958 12.8862 11.8299C12.8311 11.5943 12.8025 11.3473 12.8025 11.0945C12.8025 9.31252 14.2474 7.86708 16.0304 7.86708C16.9588 7.86708 17.7973 8.25926 18.3861 8.88601C19.1215 8.74194 19.8123 8.47251 20.4359 8.1027C20.194 8.85689 19.6828 9.48936 19.016 9.8883C19.6698 9.81028 20.2918 9.63656 20.8702 9.38014C20.4385 10.0287 19.8908 10.5972 19.2599 11.0524Z" fill="white"/>
</svg>
