<?xml version="1.0" standalone="no"?>
<!DOCTYPE svg PUBLIC "-//W3C//DTD SVG 20010904//EN"
 "http://www.w3.org/TR/2001/REC-SVG-20010904/DTD/svg10.dtd">
<svg version="1.0" xmlns="http://www.w3.org/2000/svg"
 width="280.000000pt" height="280.000000pt" viewBox="0 0 280.000000 280.000000"
 preserveAspectRatio="xMidYMid meet">
<metadata>
Created by potrace 1.11, written by Peter Selinger 2001-2013
</metadata>
<g transform="translate(0.000000,280.000000) scale(0.100000,-0.100000)"
fill="#000000" stroke="none">
<path d="M1250 2539 c-77 -12 -109 -19 -163 -33 -28 -8 -59 -16 -67 -17 -8 -2
-17 -6 -20 -9 -3 -3 -32 -16 -65 -29 -33 -13 -67 -30 -76 -37 -8 -8 -19 -14
-23 -14 -15 0 -157 -103 -202 -146 -25 -24 -50 -44 -56 -44 -6 0 -8 -3 -5 -6
4 -4 -1 -14 -11 -23 -32 -28 -128 -164 -160 -226 -51 -99 -100 -237 -117 -330
-20 -109 -20 -315 0 -372 2 -7 -1 -13 -8 -13 -8 0 -8 -3 -1 -8 5 -4 16 -33 23
-64 7 -32 23 -85 36 -118 13 -33 20 -60 17 -60 -4 0 -2 -4 3 -8 6 -4 19 -27
30 -52 11 -24 37 -70 57 -101 20 -32 33 -61 30 -65 -4 -4 -2 -5 3 -2 6 3 26
-15 45 -41 19 -25 43 -52 53 -59 9 -7 14 -18 11 -24 -4 -6 -3 -8 3 -5 6 4 22
-7 37 -23 14 -17 31 -30 36 -30 6 0 10 -7 10 -16 0 -8 4 -13 9 -9 5 3 17 -5
25 -17 9 -12 16 -19 16 -14 0 4 18 -6 39 -23 21 -17 42 -31 46 -31 4 0 19 -8
33 -18 31 -21 165 -81 190 -85 9 -1 22 -6 28 -9 5 -4 57 -16 114 -28 145 -29
331 -29 441 0 21 6 41 10 46 9 4 -1 15 0 23 3 8 3 49 18 90 33 75 26 210 95
242 122 9 8 22 12 28 8 6 -3 9 -2 8 3 -2 5 15 24 37 42 60 47 145 130 145 141
0 5 7 9 16 9 8 0 13 4 10 8 -3 5 8 23 24 41 17 18 30 35 30 38 0 4 6 14 14 22
37 41 137 269 150 341 2 14 5 25 6 25 2 0 5 15 16 77 9 56 11 288 1 353 -9 63
-12 78 -31 140 -18 58 -20 125 -6 175 6 19 13 51 16 70 3 19 8 38 10 42 2 4 0
10 -6 13 -8 5 -7 12 2 23 10 12 10 14 1 8 -9 -5 -13 -1 -13 11 0 34 -49 124
-89 163 -38 37 -102 76 -145 87 -11 3 -59 6 -106 5 -66 0 -90 4 -110 18 -69
49 -279 138 -365 155 -44 9 -54 12 -57 14 -16 12 -289 20 -348 10z"/>
</g>
</svg>
